<svg width="20" height="20" viewBox="0 0 20 20" fill="none" xmlns="http://www.w3.org/2000/svg">
<path d="M16.2001 10.8333C16.0168 10.8333 15.8251 10.775 15.6418 10.7333C15.2705 10.6515 14.9056 10.5429 14.5501 10.4083C14.1635 10.2677 13.7385 10.275 13.357 10.4288C12.9755 10.5827 12.6643 10.8722 12.4834 11.2417L12.3001 11.6167C11.4884 11.1651 10.7426 10.6044 10.0834 9.95C9.42906 9.29085 8.86827 8.545 8.41675 7.73333L8.76675 7.5C9.13622 7.3191 9.42573 7.00794 9.57958 6.62641C9.73342 6.24487 9.74073 5.81993 9.60008 5.43333C9.46777 5.07702 9.3592 4.71233 9.27508 4.34167C9.23342 4.15833 9.20008 3.96667 9.17508 3.775C9.07389 3.18801 8.76644 2.65645 8.3081 2.27603C7.84977 1.89561 7.27066 1.69134 6.67508 1.7H4.17508C3.81594 1.69663 3.46029 1.77068 3.13234 1.91711C2.80439 2.06354 2.51184 2.27891 2.27461 2.54857C2.03738 2.81822 1.86103 3.13583 1.75757 3.47976C1.65412 3.82369 1.62598 4.18588 1.67508 4.54166C2.11903 8.03282 3.71344 11.2766 6.20646 13.7605C8.69948 16.2445 11.949 17.8271 15.4418 18.2583H15.7584C16.3729 18.2592 16.9662 18.0338 17.4251 17.625C17.6887 17.3892 17.8993 17.1001 18.043 16.7769C18.1866 16.4537 18.2601 16.1037 18.2584 15.75V13.25C18.2482 12.6712 18.0374 12.1138 17.662 11.6731C17.2866 11.2323 16.7699 10.9355 16.2001 10.8333ZM16.6168 15.8333C16.6166 15.9517 16.5913 16.0686 16.5424 16.1763C16.4935 16.2841 16.4223 16.3802 16.3334 16.4583C16.2406 16.5392 16.1317 16.5995 16.014 16.6354C15.8962 16.6713 15.7722 16.682 15.6501 16.6667C12.5292 16.2665 9.63028 14.8387 7.41068 12.6086C5.19108 10.3784 3.77709 7.47278 3.39175 4.35C3.37849 4.22793 3.39011 4.10444 3.42592 3.98699C3.46173 3.86954 3.52098 3.76057 3.60008 3.66667C3.67818 3.57777 3.7743 3.50653 3.88207 3.45768C3.98983 3.40883 4.10676 3.38348 4.22508 3.38333H6.72508C6.91887 3.37902 7.1081 3.4424 7.2602 3.56256C7.4123 3.68272 7.51776 3.85214 7.55842 4.04166C7.59175 4.26944 7.63342 4.49444 7.68342 4.71666C7.77968 5.15595 7.9078 5.58765 8.06675 6.00833L6.90008 6.55C6.80033 6.59577 6.7106 6.66079 6.63605 6.74133C6.56149 6.82187 6.50358 6.91634 6.46564 7.01933C6.4277 7.12231 6.41048 7.23177 6.41496 7.34143C6.41944 7.45109 6.44553 7.55879 6.49175 7.65833C7.69108 10.2273 9.75612 12.2923 12.3251 13.4917C12.528 13.575 12.7555 13.575 12.9584 13.4917C13.0623 13.4545 13.1579 13.397 13.2394 13.3227C13.3209 13.2483 13.3869 13.1584 13.4334 13.0583L13.9501 11.8917C14.3809 12.0457 14.8206 12.1737 15.2668 12.275C15.489 12.325 15.714 12.3667 15.9417 12.4C16.1313 12.4407 16.3007 12.5461 16.4209 12.6982C16.541 12.8503 16.6044 13.0395 16.6001 13.2333L16.6168 15.8333Z" fill="white"/>
</svg>
